Coordinates
version=1
nRows=6
nColumns=36
inDegrees=yes

Units are S.I. units (second, meters, Newtons, ...)
If the header above contains a line with 'inDegrees', this indicates whether rotational values are in degrees (yes) or radians (no).

endheader
time	pelvis_tilt	pelvis_list	pelvis_rotation	pelvis_tx	pelvis_ty	pelvis_tz	hip_flexion_r	hip_adduction_r	hip_rotation_r	knee_angle_r	knee_angle_r_beta	ankle_angle_r	subtalar_angle_r	mtp_angle_r	hip_flexion_l	hip_adduction_l	hip_rotation_l	knee_angle_l	knee_angle_l_beta	ankle_angle_l	subtalar_angle_l	mtp_angle_l	lumbar_extension	lumbar_bending	lumbar_rotation	arm_flex_r	arm_add_r	arm_rot_r	elbow_flex_r	pro_sup_r	arm_flex_l	arm_add_l	arm_rot_l	elbow_flex_l	pro_sup_l
      3.75000000	     -7.41295756	     -1.34097433	     -1.62627919	      1.19263949	      0.93672947	     -0.06270350	      6.69821610	     -4.53773643	     -4.83221461	      3.10655969	      0.05421969	      4.31819465	    -12.27102661	     -7.49999987	      3.75174953	     -8.34996563	     -2.59745182	      0.74612382	      0.01302232	      8.58288125	     -2.33547330	     -7.49999987	      9.37758689	      0.30840153	     -4.45369406	     32.43038769	     -0.45503969	     60.22068560	    120.23130170	     92.52028180	     35.58010927	     -3.92891106	     55.45334302	    120.85797638	     96.14140639
      3.76666670	     -7.35091431	     -1.33850607	     -1.51799271	      1.19223026	      0.93459911	     -0.06349278	      6.66036578	     -4.55604657	     -4.53350173	      3.17006768	      0.05532812	      4.47812626	    -12.42496223	     -7.49999987	      3.78304653	     -8.33676273	     -2.48349573	      0.79731241	      0.01391573	      8.51612760	     -2.43006126	     -7.49999987	      9.53649510	      0.25847178	     -4.85064026	     32.77254249	     -0.22856648	     60.08934171	    120.03304203	     93.26673082	     35.73540638	     -4.11702955	     55.15553007	    121.41674065	     96.49133970
      3.78333330	     -7.25461727	     -1.33316061	     -1.36448877	      1.19303842	      0.93746780	     -0.06858204	      6.57338339	     -4.62662003	     -4.42314703	      3.22303414	      0.05625256	      4.51877806	    -12.38712242	     -7.49999987	      3.76123009	     -8.29400779	     -2.48402777	      0.82537741	      0.01440555	      8.50203896	     -2.40796727	     -7.49999987	      9.64997760	      0.31784819	     -4.91699426	     32.70101456	     -0.34814771	     60.10492380	    120.05572332	     93.26518679	     35.67072889	     -4.09635077	     55.19278439	    121.43639814	     96.49990864
      3.80000000	     -7.18559034	     -1.38405374	     -1.23616391	      1.18746507	      0.93737127	     -0.06715840	      6.58655197	     -4.58521471	     -4.32492449	      3.27709707	      0.05719613	      4.73118454	    -12.40733422	     -7.49999987	      3.80110224	     -8.33236999	     -2.35701587	      0.91457905	      0.01596242	      8.47415726	     -2.31292567	     -7.49999987	      9.52358087	      0.25210452	     -5.02029435	     32.57705506	     -0.65854027	     60.13259959	    120.01307133	     93.25975326	     35.57345034	     -4.20559723	     55.28510692	    121.45492655	     96.52013952
      3.81666670	     -7.04902756	     -1.36647465	     -1.10134624	      1.18747681	      0.93698319	     -0.06692764	      6.44894840	     -4.64870977	     -4.43298029	      3.33236252	      0.05816070	      5.18563677	    -11.93425899	     -7.49999987	      3.80463993	     -8.26982533	     -2.26607151	      1.01854641	      0.01777699	      8.50445447	     -2.25896151	     -7.49999987	      9.42320087	      0.19948435	     -4.99441635	     32.61806781	     -0.81256818	     59.95873626	    120.01740147	     93.04253834	     35.93431181	     -4.37324136	     55.77837541	    121.57917858	     97.37265758
      3.83333330	     -6.90488841	     -1.40753242	     -1.00254906	      1.18755717	      0.93727016	     -0.06735069	      6.29124806	     -4.64456094	     -4.34958132	      3.31180525	      0.05780191	      5.44810429	    -11.60635570	     -7.49999987	      3.73509698	     -8.28649056	     -2.16607202	      1.04960845	      0.01831912	      8.43443359	     -2.26666265	     -7.49999987	      9.41423697	      0.17299614	     -4.99853234	     32.43565720	     -0.88361218	     60.05524493	    119.70553731	     84.92418651	     35.93330694	     -4.53838906	     55.90991098	    121.20804714	     88.36067592
